<svg id="Livello_1" data-name="Livello 1" xmlns="http://www.w3.org/2000/svg" viewBox="0 0 1109.9 525.92"><defs><style>.cls-1{fill:#fff;}.cls-1,.cls-2,.cls-3{stroke:#1d1d1b;stroke-miterlimit:10;}.cls-1,.cls-2{stroke-width:10px;}.cls-2{fill:none;}.cls-3{font-size:282px;fill:#1d1d1b;stroke-width:6px;font-family:MyriadPro-Regular, Myriad Pro;}</style></defs><title>timbro_2</title><rect class="cls-1" x="164.82" y="110.79" width="780.26" height="304.34"/><line class="cls-2" x1="945.08" y1="262.96" x2="1068.87" y2="262.96"/><line class="cls-2" x1="1068.87" y1="203.72" x2="1068.87" y2="322.19"/><line class="cls-2" x1="161.99" y1="262.96" x2="49.3" y2="262.96"/><line class="cls-2" x1="49.3" y1="203.72" x2="49.3" y2="322.19"/><circle class="cls-2" cx="553.53" cy="262.96" r="139.91"/><text class="cls-3" transform="translate(481.43 352.94)">8</text><line class="cls-2" x1="758.18" y1="439.98" x2="888.84" y2="521.68"/><line class="cls-2" x1="888.84" y1="439.98" x2="758.18" y2="521.68"/><line class="cls-2" x1="211.83" y1="439.98" x2="342.49" y2="521.68"/><line class="cls-2" x1="342.49" y1="439.98" x2="211.83" y2="521.68"/><line class="cls-2" x1="211.83" y1="4.24" x2="342.49" y2="85.94"/><line class="cls-2" x1="342.49" y1="4.24" x2="211.83" y2="85.94"/><line class="cls-2" x1="758.18" y1="4.24" x2="888.84" y2="85.94"/><line class="cls-2" x1="888.84" y1="4.24" x2="758.18" y2="85.94"/><line class="cls-2" x1="972.34" y1="123.04" x2="1103.01" y2="204.75"/><line class="cls-2" x1="1103.01" y1="123.04" x2="972.34" y2="204.75"/><line class="cls-2" x1="6.89" y1="123.04" x2="137.55" y2="204.75"/><line class="cls-2" x1="137.55" y1="123.04" x2="6.89" y2="204.75"/><line class="cls-2" x1="2.65" y1="321.17" x2="133.31" y2="402.87"/><line class="cls-2" x1="133.31" y1="321.17" x2="2.65" y2="402.87"/><line class="cls-2" x1="976.58" y1="321.17" x2="1107.25" y2="402.87"/><line class="cls-2" x1="1107.25" y1="321.17" x2="976.58" y2="402.87"/></svg>